<svg width="24" height="31" viewBox="0 0 24 31" fill="none" xmlns="http://www.w3.org/2000/svg">
<g clip-path="url(#clip0_0_160)">
<path d="M17.2 23.4999V30.9999L11.9 28.8999L6.39999 30.9999V23.3999C7.79999 25.2999 9.49999 24.8999 11.2 24.0999C11.5 23.9999 11.8 23.9999 12.1 24.0999C14 24.8999 15.8 25.3999 17.2 23.4999Z" fill="#00C9C9"/>
<path d="M11.8 6.30005C8.8 6.30005 6.5 8.70005 6.5 11.6C6.5 14.6 8.9 16.9 11.8 16.9C14.7 16.9 17.1 14.5 17.1 11.6C17.1 8.70005 14.8 6.30005 11.8 6.30005Z" fill="#00C9C9"/>
<path d="M23.2 12.1L22.7 11.3C22.4 10.8 22.3 10.2 22.4 9.59995L22.7 8.39995C23 7.39995 22.5 6.29995 21.5 5.89995L20.6 5.49995C20 5.19995 19.7 4.69995 19.5 4.19995L19.1 2.99995C18.8 1.99995 17.8 1.39995 16.7 1.49995L15.7 1.59995C15.1 1.69995 14.5 1.49995 14 1.19995L13.1 0.399951C12.3 -0.200049 11.1 -0.200049 10.3 0.399951L9.60001 1.19995C9.20001 1.49995 8.70001 1.69995 8.00001 1.69995L6.90001 1.49995C5.90001 1.39995 4.90001 2.09995 4.50001 2.99995L4.20001 3.99995C4.00001 4.59995 3.70001 5.09995 3.10001 5.29995L2.10001 5.79995C1.10001 6.29995 0.70001 7.29995 1.00001 8.39995L1.20001 9.39995C1.40001 9.99995 1.20001 10.5 1.00001 11.1L0.40001 12.1C-0.0999904 13 9.59635e-06 14.1 0.80001 14.8L1.50001 15.5C2.00001 15.9 2.20001 16.4 2.30001 17V18.2C2.40001 19.2 3.10001 20.0999 4.20001 20.2999L5.20001 20.5C5.80001 20.6 6.30001 20.7999 6.70001 21.4L7.40001 22.2999C8.00001 23.1999 9.10001 23.5 10.1 23.1L11 22.7C11.6 22.4 12.1 22.4 12.7 22.7L13.7 23.1C14.7 23.5 15.8 23.1999 16.4 22.2999L17 21.5C17.3 21 17.8 20.7 18.5 20.6L19.6 20.4C20.6 20.1999 21.4 19.2999 21.4 18.2999L21.5 17.2999C21.5 16.6999 21.7 16.1 22.2 15.7L23 14.9C23.6 14.1 23.8 13 23.2 12.1ZM11.9 18.6C8.00001 18.6 5.00001 15.5 5.00001 11.7C5.00001 7.89995 8.00001 4.79995 11.9 4.79995C15.7 4.79995 18.8 7.89995 18.8 11.7C18.7 15.5 15.7 18.6 11.9 18.6Z" fill="#00C9C9"/>
</g>
<defs>
<clipPath id="clip0_0_160">
<rect width="24" height="31" fill="white"/>
</clipPath>
</defs>
</svg>
