<svg width="41" height="62" viewBox="0 0 41 62" fill="none" xmlns="http://www.w3.org/2000/svg">
<path fill-rule="evenodd" clip-rule="evenodd" d="M9.10004 3.42981L14.3934 1.39786L17.78 10.2202L12.4866 12.2521L9.10004 3.42981Z" fill="#00CCCC" stroke="#173753" stroke-width="2.722" stroke-linecap="round" stroke-linejoin="round"/>
<path fill-rule="evenodd" clip-rule="evenodd" d="M21.278 9.53101C29.42 9.53101 36.02 16.131 36.02 24.273C36.02 26.287 35.616 28.206 34.885 29.955L32.401 51.76C31.878 56.343 28 59.805 23.387 59.805H18.035C13.422 59.805 9.54401 56.343 9.02101 51.76L6.53601 29.943H7.66601C6.93801 28.198 6.53601 26.283 6.53601 24.273C6.53601 16.131 13.136 9.53101 21.278 9.53101Z" fill="#E5F9F9" stroke="#0F2336" stroke-width="2.722" stroke-linecap="round" stroke-linejoin="round"/>
<path fill-rule="evenodd" clip-rule="evenodd" d="M23.557 42.5429C27.334 45.0589 30.647 46.4759 33.498 46.7949L33.029 51.4789C32.524 56.5289 28.274 60.3749 23.199 60.3749H18.069C12.994 60.3749 8.74399 56.5289 8.23899 51.4789L7.24899 41.5969C12.297 38.3469 17.733 38.6619 23.557 42.5429Z" fill="#00C9C9"/>
<path fill-rule="evenodd" clip-rule="evenodd" d="M21.278 9.53101C29.42 9.53101 36.02 16.131 36.02 24.273C36.02 26.287 35.616 28.206 34.885 29.955L32.401 51.76C31.878 56.343 28 59.805 23.387 59.805H18.035C13.422 59.805 9.54401 56.343 9.02101 51.76L6.53601 29.943H7.66601C6.93801 28.198 6.53601 26.283 6.53601 24.273C6.53601 16.131 13.136 9.53101 21.278 9.53101V9.53101Z" stroke="#173753" stroke-width="2.722" stroke-linecap="round" stroke-linejoin="round"/>
<path d="M36.587 23.1389H4.835C3.26927 23.1389 2 24.4082 2 25.9739V27.1079C2 28.6736 3.26927 29.9429 4.835 29.9429H36.587C38.1527 29.9429 39.422 28.6736 39.422 27.1079V25.9739C39.422 24.4082 38.1527 23.1389 36.587 23.1389Z" fill="#E5F9F9" stroke="#173753" stroke-width="2.722" stroke-linecap="round" stroke-linejoin="round"/>
</svg>
